<?xml version="1.0" encoding="utf-8"?>
<!-- Generator: Adobe Illustrator 23.0.1, SVG Export Plug-In . SVG Version: 6.00 Build 0)  -->
<svg version="1.1" id="Layer_1" xmlns="http://www.w3.org/2000/svg" xmlns:xlink="http://www.w3.org/1999/xlink" x="0px" y="0px"
	 viewBox="0 0 288 241" style="enable-background:new 0 0 288 241;" xml:space="preserve">
<style type="text/css">
	.st0{fill:#FCFDFD;}
	.st1{fill:#123B7E;}
	.st2{font-family:'Cambria';}
	.st3{font-size:70.56px;}
	.st4{fill:#35642A;}
</style>
<title>acadme_big_logo</title>
<path class="st0" d="M0-37h288 M56,56.7c0.9,1.1,2.1,2,3.5,2.5C85,73.2,110.6,87.1,136,101.2c3.9,2.2,6.8,2,10.6-0.1
	c19.7-11,39.6-21.8,59.5-32.6c1.4-0.7,2.6-1.8,4.7-1.8v52.4H226c1-1.4,0.7-2.7,0.7-3.9c0-3.4,0-6.8,0-10.1c0-15-0.1-30,0.1-45
	c0-2.5-0.7-3.9-3-4.9c-2.8-1.3-5.5-3-8.2-4.4c-19.4-10.6-38.8-21.2-58.2-31.8c-5.4-2.9-10.8-5.8-16.3-8.7L56,56.7z M86.8,136
	c0.3,0.3,0.7,0.5,1.1,0.8c17,9.3,33.9,18.6,50.9,27.9c1.6,1,3.7,0.9,5.2-0.1c8.2-4.5,16.4-8.9,24.7-13.4s16.4-9,24.6-13.5
	c1.1-0.6,2.5-1,2.5-2.5c0.1-4.7,0-9.4,0-13.9c-1.6-0.6-2.4,0.1-3.2,0.6c-15.8,8.6-31.6,17.2-47.3,25.9c-2.8,1.6-5,1.7-7.9,0.1
	c-15.4-8.6-30.9-16.9-46.3-25.3c-1.2-0.7-2.3-1.9-4.3-1.6L86.8,136z M141.3,118.8L86.9,89.2c-0.8,4.6-0.1,8.6-0.4,12.5
	c-0.2,2.6,0.8,4,3.1,5.2c16.2,8.7,32.3,17.5,48.4,26.4c2.2,1.2,3.9,1.4,6.2,0.1c9.3-5.2,18.6-10.2,28-15.3c7-3.8,14-7.7,21-11.5
	c1.2-0.6,2.6-1.1,2.6-2.9V89L141.3,118.8z"/>
<path class="st1" d="M56,56.7l85.2-46.5c5.5,2.9,10.9,5.8,16.3,8.7c19.4,10.6,38.8,21.2,58.2,31.8c2.7,1.5,5.4,3.1,8.2,4.4
	c2.3,1,3,2.4,3,4.9c-0.1,15-0.1,30-0.1,45c0,3.4,0,6.8,0,10.1c0,1.2,0.3,2.5-0.7,3.9h-15.3V66.8c-2-0.1-3.3,1-4.7,1.8
	c-19.8,10.8-39.7,21.6-59.5,32.6c-3.8,2.1-6.8,2.3-10.6,0.1c-25.4-14.1-51-28-76.5-41.9C58.1,58.7,56.9,57.9,56,56.7z"/>
<path class="st1" d="M86.7,136v-15.1c1.9-0.3,3,0.9,4.3,1.6c15.5,8.4,31,16.8,46.3,25.3c2.9,1.6,5.1,1.5,7.9-0.1
	c15.7-8.8,31.5-17.3,47.3-25.9c0.8-0.4,1.6-1.2,3.2-0.6c0,4.5,0,9.2,0,13.9c0,1.5-1.4,1.9-2.5,2.5c-8.2,4.5-16.4,9-24.6,13.5
	c-8.2,4.5-16.5,8.9-24.7,13.4c-1.6,1.1-3.6,1.1-5.2,0.1c-17-9.3-33.9-18.6-50.9-27.9C87.4,136.6,87.1,136.3,86.7,136z"/>
<path class="st1" d="M141.3,118.8L195.8,89v14.7c0,1.7-1.4,2.2-2.6,2.9c-7,3.9-14,7.7-21,11.5c-9.3,5.1-18.7,10.1-28,15.3
	c-2.3,1.3-4,1.1-6.2-0.1c-16.1-8.9-32.2-17.6-48.4-26.4c-2.3-1.3-3.3-2.6-3.1-5.2c0.3-3.9-0.3-7.9,0.4-12.5L141.3,118.8z"/>
<text transform="matrix(1 0 0 1 23.77 229.92)" class="st1 st2 st3">A</text>
<text transform="matrix(1 0 0 1 67.18 229.92)" class="st1 st2 st3">cad</text>
<text transform="matrix(1 0 0 1 171.88 229.92)" class="st4 st2 st3">Me</text>
</svg>
