<svg id="Layer_1" data-name="Layer 1" xmlns="http://www.w3.org/2000/svg" viewBox="0 0 226.76 293.25"><defs><style>.cls-1{fill:#fdfeff;}.cls-2{fill:#233d7a;}</style></defs><title>blue_logo</title><path class="cls-1" d="M-47.25,253.75V-39.5" transform="translate(47.25 39.5)"/><path class="cls-1" d="M8.7,54.23a8.83,8.83,0,0,0,3.48,2.54c25.52,13.95,51.1,27.8,76.54,41.91,3.89,2.16,6.84,2,10.65-.1C119.1,87.57,139,76.83,158.83,66c1.37-.74,2.65-1.82,4.66-1.77v52.42h15.25c1-1.39.68-2.68.7-3.9,0-3.37,0-6.75,0-10.12,0-15-.06-30,.06-45,0-2.48-.71-3.89-3-4.92-2.84-1.3-5.5-3-8.24-4.45q-29.09-15.91-58.16-31.82c-5.36-2.92-10.76-5.77-16.26-8.71Z" transform="translate(47.25 39.5)"/><path class="cls-1" d="M39.49,133.53a11.18,11.18,0,0,0,1,.77Q66,148.22,91.46,162.16a4.85,4.85,0,0,0,5.23-.11c8.19-4.53,16.45-8.94,24.66-13.43s16.42-9,24.61-13.52c1.07-.59,2.47-1,2.49-2.52.06-4.7,0-9.41,0-13.93-1.57-.65-2.37.14-3.2.59-15.78,8.61-31.58,17.19-47.27,26-2.83,1.57-5,1.69-7.92.09C74.7,136.72,59.21,128.34,43.74,120c-1.24-.67-2.34-1.9-4.25-1.57Z" transform="translate(47.25 39.5)"/><path class="cls-1" d="M94,116.26,39.67,86.7c-.76,4.63-.14,8.61-.45,12.53-.21,2.62.78,4,3.11,5.21q24.27,13,48.36,26.35c2.19,1.21,3.93,1.4,6.22.12,9.26-5.2,18.63-10.18,28-15.26q10.53-5.73,21-11.49c1.16-.64,2.58-1.14,2.58-2.88V86.55Z" transform="translate(47.25 39.5)"/><path class="cls-2" d="M8.7,54.23,93.88,7.76c5.5,2.94,10.9,5.79,16.26,8.71q29.08,15.88,58.16,31.82c2.74,1.5,5.4,3.15,8.24,4.45,2.26,1,3,2.44,3,4.92-.12,15-.06,30-.06,45,0,3.37,0,6.75,0,10.12,0,1.22.27,2.51-.7,3.9H163.49V64.25c-2,0-3.29,1-4.66,1.77C139,76.83,119.1,87.57,99.37,98.58c-3.81,2.12-6.76,2.26-10.65.1-25.44-14.11-51-28-76.54-41.91A8.83,8.83,0,0,1,8.7,54.23Z" transform="translate(47.25 39.5)"/><path class="cls-2" d="M39.49,133.53V118.38c1.91-.33,3,.9,4.25,1.57,15.47,8.39,31,16.77,46.34,25.33,2.88,1.6,5.09,1.48,7.92-.09,15.69-8.76,31.49-17.34,47.27-25.95.83-.45,1.63-1.24,3.2-.59,0,4.52,0,9.23,0,13.93,0,1.52-1.42,1.93-2.49,2.52q-12.28,6.78-24.61,13.52c-8.21,4.49-16.47,8.9-24.66,13.43a4.85,4.85,0,0,1-5.23.11Q66,148.17,40.54,134.3A11.18,11.18,0,0,1,39.49,133.53Z" transform="translate(47.25 39.5)"/><path class="cls-2" d="M94,116.26l54.5-29.71v14.73c0,1.74-1.42,2.24-2.58,2.88q-10.5,5.78-21,11.49c-9.33,5.08-18.7,10.06-28,15.26-2.29,1.28-4,1.09-6.22-.12Q66.57,117.5,42.33,104.44c-2.33-1.25-3.32-2.59-3.11-5.21.31-3.92-.31-7.9.45-12.53Z" transform="translate(47.25 39.5)"/></svg>