<svg id="Layer_1" data-name="Layer 1" xmlns="http://www.w3.org/2000/svg" viewBox="0 0 226.76 293.25"><defs><style>.cls-1{fill:#fdfeff;}.cls-2{fill:#29582b;}</style></defs><title>green-logo</title><path class="cls-1" d="M-54.25,247.75V-45.5" transform="translate(54.25 45.5)"/><path class="cls-1" d="M1.7,48.23a8.83,8.83,0,0,0,3.48,2.54c25.52,13.95,51.1,27.8,76.54,41.91,3.89,2.16,6.84,2,10.65-.1C112.1,81.57,132,70.83,151.83,60c1.37-.74,2.65-1.82,4.66-1.77v52.42h15.25c1-1.39.68-2.68.7-3.9,0-3.37,0-6.75,0-10.12,0-15-.06-30,.06-45,0-2.48-.71-3.89-3-4.92-2.84-1.3-5.5-3-8.24-4.45q-29.09-15.91-58.16-31.82C97.78,7.55,92.38,4.7,86.88,1.76Z" transform="translate(54.25 45.5)"/><path class="cls-1" d="M32.49,127.53a11.18,11.18,0,0,0,1,.77Q59,142.22,84.46,156.16a4.85,4.85,0,0,0,5.23-.11c8.19-4.53,16.45-8.94,24.66-13.43s16.42-9,24.61-13.52c1.07-.59,2.47-1,2.49-2.52.06-4.7,0-9.41,0-13.93-1.57-.65-2.37.14-3.2.59-15.78,8.61-31.58,17.19-47.27,26-2.83,1.57-5,1.69-7.92.09C67.7,130.72,52.21,122.34,36.74,114c-1.24-.67-2.34-1.9-4.25-1.57Z" transform="translate(54.25 45.5)"/><path class="cls-1" d="M87,110.26,32.67,80.7c-.76,4.63-.14,8.61-.45,12.53-.21,2.62.78,4,3.11,5.21q24.27,13,48.36,26.35c2.19,1.21,3.93,1.4,6.22.12,9.26-5.2,18.63-10.18,28-15.26q10.53-5.73,21-11.49c1.16-.64,2.58-1.14,2.58-2.88V80.55Z" transform="translate(54.25 45.5)"/><path class="cls-2" d="M1.7,48.23,86.88,1.76c5.5,2.94,10.9,5.79,16.26,8.71q29.08,15.88,58.16,31.82c2.74,1.5,5.4,3.15,8.24,4.45,2.26,1,3,2.44,3,4.92-.12,15-.06,30-.06,45,0,3.37,0,6.75,0,10.12,0,1.22.27,2.51-.7,3.9H156.49V58.25c-2,0-3.29,1-4.66,1.77C132,70.83,112.1,81.57,92.37,92.58c-3.81,2.12-6.76,2.26-10.65.1-25.44-14.11-51-28-76.54-41.91A8.83,8.83,0,0,1,1.7,48.23Z" transform="translate(54.25 45.5)"/><path class="cls-2" d="M32.49,127.53V112.38c1.91-.33,3,.9,4.25,1.57,15.47,8.39,31,16.77,46.34,25.33,2.88,1.6,5.09,1.48,7.92-.09,15.69-8.76,31.49-17.34,47.27-25.95.83-.45,1.63-1.24,3.2-.59,0,4.52,0,9.23,0,13.93,0,1.52-1.42,1.93-2.49,2.52q-12.28,6.78-24.61,13.52c-8.21,4.49-16.47,8.9-24.66,13.43a4.85,4.85,0,0,1-5.23.11Q59,142.17,33.54,128.3A11.18,11.18,0,0,1,32.49,127.53Z" transform="translate(54.25 45.5)"/><path class="cls-2" d="M87,110.26l54.5-29.71V95.28c0,1.74-1.42,2.24-2.58,2.88q-10.5,5.78-21,11.49c-9.33,5.08-18.7,10.06-28,15.26-2.29,1.28-4,1.09-6.22-.12Q59.57,111.5,35.33,98.44C33,97.19,32,95.85,32.22,93.23c.31-3.92-.31-7.9.45-12.53Z" transform="translate(54.25 45.5)"/></svg>